:FULLY-SPECIFIED
:FORCE-ALL-JOINTS-BE-3DOF
:DEGREES
170
root 6.49692 16.0668 -25.663 3.99582 29.6318 1.47966
lfemur -25.9315 31.3718 -16.9482
ltibia 41.2333 0 0
lfoot -7.88004 10.4068 0
ltoes 14.6279 0 0
rfemur -19.6133 -2.98362 -6.08488
rtibia 59.5795 0 0
rfoot 7.39878 -26.0956 0
rtoes 44.1294 0 0
lowerback 1.16871 -4.97505 -1.26966
upperback -0.0364526 -6.6462 -2.45257
thorax -0.836839 -3.31903 -1.6745
lowerneck -9.4508 -7.37916 -1.63008
upperneck 1.77978 -9.90217 5.28603
head 2.59401 -4.77087 1.45647
lclavicle -9.8808e-14 2.87197e-15 0
lhumerus -50.0078 -41.5886 115.885
lradius 52.4593 0 0
lwrist 15.5796 0 0
lhand 37.5117 28.8675 0
lfingers 7.12502 0 0
lthumb 60.312 42.3936 0
rclavicle -9.8808e-14 2.87197e-15 0
rhumerus -48.3618 -12.9553 -79.3048
rradius 90.0873 0 0
rwrist -4.8374 0 0
rhand -41.3166 -51.864 0
rfingers 7.12502 0 0
rthumb -14.2545 -440.763 0
171
root 6.43394 16.0419 -25.6445 4.2338 29.0885 1.56536
lfemur -25.2139 30.2912 -16.2226
ltibia 40.1399 0 0
lfoot -8.05011 9.44553 0
ltoes 16.1246 0 0
rfemur -18.416 -2.77454 -6.95404
rtibia 57.964 0 0
rfoot 5.99769 -25.9984 0
rtoes 45.683 0 0
lowerback 0.773196 -4.89074 -1.14916
upperback -0.120712 -6.50969 -2.60977
thorax -0.729877 -3.25159 -1.93442
lowerneck -9.52435 -7.28558 -1.51706
upperneck 1.88161 -9.79838 5.26681
head 2.63527 -4.71574 1.43553
lclavicle -9.71332e-14 2.44826e-15 0
lhumerus -50.4019 -41.7482 116.151
lradius 52.6263 0 0
lwrist 15.8354 0 0
lhand 37.8968 29.238 0
lfingers 7.12502 0 0
lthumb 60.6477 42.4627 0
rclavicle -9.71332e-14 2.44826e-15 0
rhumerus -48.372 -10.5997 -78.914
rradius 91.3322 0 0
rwrist -5.2741 0 0
rhand -38.7809 -50.209 0
rfingers 7.12502 0 0
rthumb -11.8349 -438.239 0
172
root 6.37096 16.017 -25.6261 4.45117 28.3957 1.67129
lfemur -24.303 28.9472 -15.3773
ltibia 38.8411 0 0
lfoot -8.30291 8.23279 0
ltoes 17.8089 0 0
rfemur -17.452 -2.7074 -7.69382
rtibia 56.4532 0 0
rfoot 4.45488 -25.5761 0
rtoes 47.0224 0 0
lowerback 0.391806 -4.79586 -1.05304
upperback -0.193144 -6.36165 -2.78734
thorax -0.615444 -3.17822 -2.2001
lowerneck -9.62726 -7.14812 -1.3876
upperneck 1.98886 -9.6388 5.24461
head 2.68102 -4.63226 1.41362
lclavicle -9.38433e-14 1.92409e-15 0
lhumerus -50.7582 -41.8693 116.308
lradius 52.7797 0 0
lwrist 16.0833 0 0
lhand 38.2604 29.5615 0
lfingers 7.12502 0 0
lthumb 60.9623 42.4867 0
rclavicle -9.38433e-14 1.92409e-15 0
rhumerus -48.4672 -7.79971 -78.4418
rradius 92.8576 0 0
rwrist -5.79079 0 0
rhand -35.7084 -48.1967 0
rfingers 7.12502 0 0
rthumb -8.90268 -435.009 0
173
root 6.30797 15.9921 -25.6076 4.64938 27.5683 1.79523
lfemur -23.2195 27.3697 -14.4265
ltibia 37.3608 0 0
lfoot -8.63208 6.79829 0
ltoes 19.6568 0 0
rfemur -16.7043 -2.77034 -8.31363
rtibia 55.0434 0 0
rfoot 2.78868 -24.8586 0
rtoes 48.1644 0 0
lowerback 0.0247963 -4.6916 -0.979244
upperback -0.254658 -6.20351 -2.98279
thorax -0.494828 -3.09964 -2.47016
lowerneck -9.75615 -6.97097 -1.24301
upperneck 2.10059 -9.42873 5.21943
head 2.73061 -4.52312 1.39069
lclavicle -8.91091e-14 1.31415e-15 0
lhumerus -51.0798 -41.9556 116.366
lradius 52.9205 0 0
lwrist 16.3242 0 0
lhand 38.6025 29.8412 0
lfingers 7.12502 0 0
lthumb 61.2562 42.4699 0
rclavicle -8.91091e-14 1.31415e-15 0
rhumerus -48.6329 -4.61851 -77.891
rradius 94.6241 0 0
rwrist -6.37882 0 0
rhand -32.1724 -45.8763 0
rfingers 7.12502 0 0
rthumb -5.52781 -431.187 0
174
root 6.24499 15.9672 -25.5892 4.82985 26.6218 1.93496
lfemur -21.9841 25.5883 -13.3847
ltibia 35.723 0 0
lfoot -9.03128 5.17165 0
ltoes 21.6444 0 0
rfemur -16.1557 -2.95146 -8.82287
rtibia 53.731 0 0
rfoot 1.01744 -23.8757 0
rtoes 49.1259 0 0
lowerback -0.327582 -4.57911 -0.925713
upperback -0.306164 -6.03667 -3.19364
thorax -0.36932 -3.01657 -2.74325
lowerneck -9.90761 -6.75829 -1.0846
upperneck 2.21587 -9.17342 5.19126
head 2.78338 -4.39103 1.36671
lclavicle -8.31014e-14 6.33118e-16 0
lhumerus -51.37 -42.011 116.336
lradius 53.0496 0 0
lwrist 16.5589 0 0
lhand 38.9233 30.0801 0
lfingers 7.12502 0 0
lthumb 61.5299 42.4172 0
rclavicle -8.31014e-14 6.33118e-16 0
rhumerus -48.8549 -1.11932 -77.2643
rradius 96.5919 0 0
rwrist -7.02952 0 0
rhand -28.246 -43.297 0
rfingers 7.12502 0 0
rthumb -1.7802 -426.889 0
175
root 6.18201 15.9424 -25.5707 4.99401 25.5711 2.08826
lfemur -20.6178 23.6327 -12.2662
ltibia 33.9513 0 0
lfoot -9.49416 3.38255 0
ltoes 23.7477 0 0
rfemur -15.7892 -3.23889 -9.23096
rtibia 52.5124 0 0
rfoot -0.840494 -22.6574 0
rtoes 49.924 0 0
lowerback -0.665078 -4.45957 -0.890384
upperback -0.348573 -5.86253 -3.41742
thorax -0.240207 -2.92973 -3.01799
lowerneck -10.0783 -6.51425 -0.913684
upperneck 2.33374 -8.87817 5.16011
head 2.83866 -4.2387 1.34165
lclavicle -7.59912e-14 -1.04324e-16 0
lhumerus -51.6321 -42.0394 116.229
lradius 53.1679 0 0
lwrist 16.7882 0 0
lhand 39.223 30.2814 0
lfingers 7.12502 0 0
lthumb 61.7836 42.333 0
rclavicle -7.59912e-14 -1.04324e-16 0
rhumerus -49.1184 2.63467 -76.5642
rradius 98.7214 0 0
rwrist -7.73426 0 0
rhand -24.0024 -40.5077 0
rfingers 7.12502 0 0
rthumb 2.27024 -422.229 0
176
root 6.11903 15.9175 -25.5523 5.1433 24.4315 2.25292
lfemur -19.1412 21.5327 -11.0853
ltibia 32.0697 0 0
lfoot -10.0144 1.4606 0
ltoes 25.9427 0 0
rfemur -15.5876 -3.62075 -9.54731
rtibia 51.3839 0 0
rfoot -2.76678 -21.2336 0
rtoes 50.5754 0 0
lowerback -0.987439 -4.33416 -0.871197
upperback -0.382794 -5.68251 -3.65165
thorax -0.108778 -2.83985 -3.29303
lowerneck -10.2647 -6.24301 -0.731566
upperneck 2.45326 -8.54825 5.12598
head 2.89579 -4.06884 1.31547
lclavicle -6.79494e-14 -8.83493e-16 0
lhumerus -51.8692 -42.0445 116.055
lradius 53.2763 0 0
lwrist 17.0129 0 0
lhand 39.5017 30.448 0
lfingers 7.12502 0 0
lthumb 62.0177 42.2221 0
rclavicle -6.79494e-14 -8.83493e-16 0
rhumerus -49.4093 6.58025 -75.7935
rradius 100.973 0 0
rwrist -8.48438 0 0
rhand -19.5149 -37.5578 0
rfingers 7.12502 0 0
rthumb 6.55361 -417.323 0
